<?xml version="1.0" encoding="utf-8" ?>
<svg xmlns="http://www.w3.org/2000/svg" xmlns:xlink="http://www.w3.org/1999/xlink" width="500" height="500">
	<g>
		<path fill="#282828" d="M239.17 4.11085C242.851 3.87102 246.618 3.98302 250.308 3.98538Q261.177 3.90636 272.005 4.8457Q282.833 5.78505 293.526 7.7345Q297.739 8.49039 301.924 9.39226Q306.108 10.2941 310.259 11.3409Q314.41 12.3877 318.522 13.5781Q322.633 14.7685 326.701 16.101Q330.769 17.4336 334.788 18.9068Q338.807 20.3799 342.773 21.9919Q346.739 23.6039 350.646 25.3527Q354.553 27.1015 358.397 28.9851Q362.241 30.8686 366.017 32.8846Q369.793 34.9007 373.497 37.0467Q377.201 39.1927 380.828 41.4662Q384.455 43.7397 388 46.1379Q391.546 48.536 395.007 51.056Q398.467 53.5759 401.837 56.2146Q405.208 58.8533 408.485 61.6076Q411.762 64.3618 414.941 67.2283Q420.306 72.1419 425.386 77.3492Q430.467 82.5565 435.246 88.0411Q440.026 93.5257 444.49 99.2702Q448.954 105.015 453.088 111.001C489.916 163.596 503.292 230.786 492.2 293.719C466.927 294.077 441.599 293.734 416.32 293.734C416.368 274.747 416.522 255.736 416.294 236.751L322.241 236.745C321.975 248.727 322.169 260.771 322.23 272.758L362.205 272.774C361.65 277.302 360.964 280.714 358.013 284.35C352.34 291.339 342.866 294.655 334.166 295.537C323.255 296.644 310.116 294.745 301.414 287.624C293.45 281.107 289.828 271.772 288.811 261.746C288.303 256.735 288.348 251.657 288.341 246.625C288.322 234.085 288.523 221.094 296.911 210.902C303.327 203.106 312.436 199.448 322.34 198.524C333.304 197.502 345.399 198.839 354.136 206.167C359.651 210.792 361.509 215.506 362.118 222.505L416.294 222.506C415.71 209.034 413.18 198.035 405.035 187.022C391.6 168.86 369.62 160.532 347.976 157.379C319.082 153.169 285.034 156.13 261.029 174.223C243.827 187.189 234.578 206.875 231.679 227.841C228.031 254.22 230.861 287.616 247.512 309.485C259.877 325.724 279.031 334.173 298.853 336.856C322.009 339.991 347.236 338.246 368.096 326.893C372.91 324.273 377.178 321.058 381.528 317.755C383.132 323.661 385.268 329.436 387.016 335.306C395.378 335.125 403.735 335.47 412.092 335.451L480.939 335.29C479.445 338.519 478.36 341.982 476.965 345.262Q472.026 356.945 466.003 368.109Q463.932 371.867 461.732 375.552Q459.533 379.237 457.207 382.843Q454.882 386.45 452.434 389.974Q449.986 393.499 447.417 396.936Q444.849 400.374 442.163 403.721Q439.478 407.069 436.679 410.321Q433.88 413.574 430.97 416.728Q428.06 419.882 425.043 422.934Q422.026 425.986 418.906 428.932Q415.786 431.878 412.566 434.714Q409.346 437.551 406.03 440.275Q402.714 442.999 399.306 445.607Q395.899 448.215 392.403 450.704Q388.907 453.193 385.328 455.56Q381.748 457.926 378.089 460.168Q374.43 462.411 370.696 464.525Q368.293 465.877 365.86 467.175Q363.427 468.473 360.966 469.716Q358.504 470.96 356.016 472.147Q353.527 473.335 351.013 474.467Q348.498 475.599 345.959 476.674Q343.42 477.749 340.857 478.767Q338.295 479.785 335.71 480.745Q333.125 481.705 330.519 482.608Q327.914 483.51 325.288 484.354Q322.663 485.197 320.02 485.982Q317.376 486.767 314.716 487.492Q312.055 488.217 309.38 488.883Q306.704 489.548 304.013 490.153Q301.323 490.759 298.62 491.304Q295.917 491.849 293.203 492.333Q290.488 492.817 287.763 493.241Q285.038 493.664 282.305 494.027Q279.571 494.389 276.83 494.69Q274.089 494.991 271.342 495.23Q268.595 495.47 265.844 495.648Q263.092 495.826 260.337 495.942Q257.582 496.058 254.825 496.113Q252.068 496.167 249.311 496.16Q246.553 496.153 243.797 496.084Q241.04 496.015 238.286 495.884Q235.531 495.754 232.78 495.561Q230.03 495.369 227.284 495.115Q224.538 494.861 221.799 494.546Q219.059 494.231 216.328 493.854Q213.596 493.477 210.874 493.04Q208.151 492.602 205.439 492.104Q202.727 491.605 200.027 491.046Q197.069 490.43 194.127 489.741Q191.185 489.053 188.26 488.293Q185.336 487.532 182.431 486.701Q179.526 485.869 176.643 484.966Q173.759 484.064 170.899 483.091Q168.038 482.117 165.202 481.075Q162.366 480.032 159.557 478.92Q156.747 477.808 153.966 476.627Q151.184 475.447 148.433 474.199Q145.681 472.95 142.961 471.635Q140.24 470.32 137.553 468.938Q134.866 467.556 132.214 466.109Q129.561 464.662 126.945 463.151Q124.328 461.639 121.75 460.064Q119.171 458.489 116.632 456.851Q114.093 455.213 111.595 453.513Q109.097 451.814 106.641 450.053Q104.185 448.293 101.773 446.473Q99.3611 444.653 96.9945 442.775Q94.6278 440.896 92.3079 438.96Q89.988 437.024 87.7162 435.032Q85.4444 433.04 83.2221 430.993Q80.9998 428.945 78.8283 426.844Q76.6569 424.743 74.5375 422.589Q72.4182 420.436 70.3523 418.231Q68.2863 416.026 66.275 413.771Q64.2637 411.516 62.3083 409.213Q60.3528 406.909 58.4544 404.558Q56.556 402.208 54.7157 399.811Q52.8755 397.415 51.0945 394.974Q49.3135 392.533 47.5928 390.049Q45.8722 387.565 44.2129 385.04Q42.5504 382.501 40.9507 379.921Q39.3511 377.342 37.8154 374.724Q36.2797 372.105 34.8088 369.45Q33.3379 366.795 31.9328 364.105Q30.5276 361.415 29.189 358.69Q27.8504 355.966 26.5792 353.21Q25.308 350.454 24.1049 347.667Q22.9019 344.881 21.7677 342.065Q20.6335 339.25 19.5688 336.407Q18.5042 333.565 17.5098 330.697Q16.5153 327.83 15.5917 324.938Q14.6681 322.047 13.8158 319.134Q12.9636 316.221 12.1832 313.288Q11.4028 310.354 10.6948 307.403Q9.98672 304.451 9.35146 301.483Q8.71621 298.515 8.15411 295.533Q7.59202 292.55 7.10342 289.554Q6.61483 286.558 6.20004 283.552Q5.78524 280.545 5.44449 277.529Q5.10374 274.513 4.83725 271.489Q4.57076 268.466 4.37868 265.437Q4.1866 262.407 4.06905 259.374Q3.9515 256.342 3.90856 253.307Q3.86561 250.272 3.8973 247.237Q3.92898 244.201 4.03527 241.168Q4.14156 238.135 4.3224 235.105Q4.50324 232.075 4.75851 229.051Q5.01378 226.026 5.34334 223.009Q5.67289 219.991 6.07652 216.983Q6.48016 213.975 6.95763 210.977Q7.43511 207.98 7.98613 204.995Q8.53715 202.01 9.16139 199.04L95.2065 199.033C93.1171 204.162 91.2171 209.245 89.8179 214.612C83.1017 240.375 84.8253 277.894 98.606 301.244C108.562 318.114 125.083 329.487 143.935 334.29C167.337 340.252 196.4 340.085 219.111 331.495C224.709 329.377 229.974 326.377 235.101 323.323C233.402 321.497 231.98 319.253 230.587 317.184Q229.148 315.025 227.82 312.796Q226.492 310.568 225.279 308.274Q224.066 305.981 222.97 303.629Q221.875 301.277 220.9 298.873Q219.926 296.468 219.074 294.017Q218.223 291.567 217.496 289.076Q216.77 286.585 216.171 284.061Q215.572 281.536 215.102 278.985C214.635 276.453 214.145 273.913 213.81 271.359C213.506 269.038 213.573 265.903 212.775 263.744C212.078 263.408 211.511 263.477 210.765 263.522C209.476 265.08 209.725 270.527 209.253 272.696C208.218 277.456 206.216 282.15 203.032 285.878C197.846 291.95 189.891 295.061 182.067 295.65C173.567 296.289 163.07 295.121 156.378 289.308C148.235 282.236 145.063 271.186 144.414 260.765C144.092 255.602 144.125 250.4 144.132 245.228C144.152 232.177 144.354 217.598 153.571 207.267C160.407 199.606 166.293 199.342 175.924 198.972C177.755 198.901 179.572 198.628 181.4 198.531C187.424 198.21 194.143 201.335 198.522 205.326C206.084 212.218 207.911 221.492 208.392 231.265L212.926 231.27C213.425 227.936 213.664 224.574 214.25 221.25C217.554 202.501 224.345 187.244 236.236 172.414C224.599 164.654 213.478 159.909 199.667 157.553Q192.446 156.363 185.14 155.944Q177.834 155.525 170.524 155.882C166.004 156.086 161.501 156.611 156.98 156.798C152.806 156.97 148.61 156.904 144.433 156.901L22.0822 156.89C33.6923 130.134 48.2172 105.948 68.0055 84.3541Q70.0431 82.1083 72.1356 79.9136Q74.2281 77.7189 76.3742 75.5766Q78.5203 73.4343 80.7188 71.3457Q82.9172 69.2571 85.1665 67.2235Q87.4159 65.1899 89.7149 63.2125Q92.0138 61.2351 94.361 59.3152Q96.7081 57.3952 99.102 55.5339Q101.496 53.6725 103.935 51.8709Q106.374 50.0693 108.857 48.3286Q111.34 46.5879 113.865 44.909Q116.391 43.2302 118.957 41.6143Q121.523 39.9984 124.128 38.4464Q126.733 36.8945 129.376 35.4074Q132.018 33.9203 134.697 32.499Q137.376 31.0777 140.089 29.723Q142.801 28.3684 145.547 27.0812Q148.293 25.794 151.069 24.5751Q153.846 23.3562 156.652 22.2063Q159.458 21.0564 162.291 19.9763Q165.125 18.8961 167.984 17.8863Q170.843 16.8765 173.727 15.9377Q176.61 14.9989 179.516 14.1316Q182.421 13.2644 185.348 12.4692Q188.274 11.6741 191.219 10.9515Q194.164 10.229 197.126 9.57944Q200.088 8.9299 203.065 8.35378Q206.042 7.77767 209.033 7.27532Q212.023 6.77298 215.025 6.34472Q218.027 5.91646 221.039 5.56254Q224.051 5.20862 227.07 4.92925Q230.089 4.64989 233.115 4.44526Q236.14 4.24063 239.17 4.11085Z"/>
		<path fill="#FEFEFE" d="M183.189 356.506L188.79 356.531L190.769 379.023L185.52 379.026C185.392 375.957 185.132 372.867 184.836 369.809C184.636 368.355 184.683 366.864 184.666 365.398C182.886 369.835 181.46 374.484 179.837 378.986L176.74 378.974C175.441 374.311 173.29 369.899 172.302 365.137C171.713 369.736 171.475 374.397 171.133 379.02L165.974 379.044C166.47 371.528 167.315 364.043 167.792 356.527L173.426 356.537C174.934 360.89 176.725 365.178 178.385 369.478C179.797 365.112 181.64 360.832 183.189 356.506Z"/>
		<path fill="#FEFEFE" d="M68.5036 134.256L148.798 134.254L148.788 138.286L68.5028 138.269L68.5036 134.256Z"/>
		<path fill="#FEFEFE" d="M212.029 356.521L217.317 356.5C219.971 361.406 223.438 365.94 226.249 370.781C225.856 366.077 226.1 361.253 226.089 356.529L231.326 356.536Q231.419 367.457 231.354 378.379C231.388 378.689 231.399 378.486 231.088 378.929C229.464 379.2 227.704 379.069 226.057 379.055C223.479 374.183 219.943 369.773 217.24 364.945C217.4 369.625 217.309 374.324 217.299 379.006L212.083 379.037C211.862 371.551 212.035 364.013 212.029 356.521Z"/>
		<path fill="#FEFEFE" d="M271.486 356.295Q272.297 356.24 273.109 356.223C276.828 356.163 279.438 357.543 282.053 360.049C280.87 361.286 279.729 362.567 278.571 363.826C277.819 362.853 277.088 362.113 276.003 361.499C274.814 360.827 273.591 360.49 272.26 360.939C270.772 361.44 269.606 362.765 268.913 364.131Q268.72 364.519 268.568 364.924Q268.416 365.329 268.306 365.747Q268.195 366.166 268.128 366.593Q268.061 367.021 268.038 367.453Q268.014 367.885 268.035 368.317Q268.056 368.75 268.12 369.178Q268.184 369.606 268.292 370.025Q268.399 370.444 268.549 370.85C269.069 372.297 269.937 373.572 271.386 374.2C272.756 374.794 274.535 374.716 275.902 374.148C277.49 373.489 278.061 372.009 278.64 370.521L273.221 370.476C273.183 369.361 272.919 367.788 273.453 366.793C274.274 366.3 274.847 366.4 275.793 366.372L283.71 366.443C283.759 369.327 283.879 371.935 282.394 374.538C281.076 376.848 278.846 378.417 276.288 379.076C273.442 379.808 270.467 379.443 267.941 377.918Q267.438 377.613 266.968 377.26Q266.497 376.907 266.064 376.509Q265.631 376.112 265.239 375.673Q264.847 375.234 264.501 374.759Q264.154 374.284 263.857 373.776Q263.559 373.269 263.313 372.735Q263.066 372.201 262.874 371.645Q262.682 371.089 262.546 370.517Q262.413 369.925 262.34 369.322Q262.266 368.719 262.254 368.113Q262.241 367.506 262.289 366.9Q262.338 366.295 262.446 365.698Q262.555 365.101 262.722 364.517Q262.89 363.934 263.115 363.37Q263.34 362.806 263.621 362.268Q263.901 361.73 264.234 361.222C265.998 358.498 268.337 356.977 271.486 356.295Z"/>
		<path fill="#FEFEFE" d="M366.833 356.529L372.091 356.54C372.248 363.919 372.144 371.338 372.106 378.719C371.247 379.386 368.049 379.049 366.87 379.032C366.759 376.046 366.841 373.031 366.844 370.042L359.78 370.069L359.767 379.019L354.525 379.017L354.529 356.529L359.8 356.523L359.782 365.47L366.896 365.473C366.667 362.541 366.834 359.476 366.833 356.529Z"/>
		<path fill="#FEFEFE" d="M294.165 356.503L299.074 356.496C301.582 364.108 305.247 371.456 308.021 378.998C306.136 379.046 304.245 379.008 302.36 378.998C301.934 377.738 301.694 375.857 300.821 374.853C300.514 374.499 300.005 374.602 299.562 374.579L292.283 374.541C291.899 376.069 291.325 377.575 290.822 379.069L285.119 378.988C288.265 371.578 291.38 364.055 294.165 356.503Z"/>
		<path fill="#282828" d="M296.453 363.859C297.258 364.795 298.222 366.937 298.494 368.155C298.651 368.86 298.81 369.32 298.406 369.923L297.237 370.003C296.433 370.036 295.503 370.201 294.804 369.738C294.168 368.423 295.956 365.291 296.453 363.859Z"/>
		<path fill="#FEFEFE" d="M310.287 356.532L315.533 356.519C315.505 359.958 314.584 370.977 316.669 373.388C317.217 374.022 317.938 374.377 318.772 374.433C319.698 374.494 320.605 374.257 321.284 373.602C323.554 371.417 322.616 359.74 322.603 356.53L327.928 356.53L327.894 362.062C327.93 366.251 328.913 373.89 325.816 377.132C324.241 378.78 321.828 379.421 319.614 379.498C317.04 379.588 314.264 378.961 312.383 377.095C311.577 376.295 311.03 375.332 310.738 374.237C309.6 369.979 310.26 361.182 310.287 356.532Z"/>
		<path fill="#FEFEFE" d="M194.519 356.531L207.513 356.517L207.509 361.178L199.784 361.175L199.784 365.48L207.21 365.498L207.208 370.036C205.338 370.075 201.431 369.442 199.885 370.35L199.748 371.188L199.783 374.464L207.506 374.483L207.51 379.021L194.535 379.027C194.438 371.532 194.519 364.027 194.519 356.531Z"/>
		<path fill="#FEFEFE" d="M149.525 356.534L162.51 356.518L162.517 361.175L154.785 361.177L154.784 365.48L162.211 365.498L162.21 370.036C160.338 370.078 156.433 369.443 154.886 370.35L154.748 371.188L154.784 374.464L162.514 374.484L162.517 379.017L149.536 379.026L149.525 356.534Z"/>
		<path fill="#FEFEFE" d="M377.024 356.526L389.988 356.522L389.996 361.199Q386.162 361.238 382.33 361.1L382.299 365.489L389.721 365.493L389.709 370.028C387.865 370.058 383.99 369.454 382.415 370.301L382.302 370.938L382.301 374.475L389.996 374.488L389.994 379.031L377.077 379.032C376.908 371.541 377.034 364.021 377.024 356.526Z"/>
		<path fill="#FEFEFE" d="M119.765 356.293C123.141 356.047 125.958 356.51 128.942 358.168L126.771 362.607C124.85 361.677 123.152 361.212 120.999 361.474C119.093 361.707 117.182 362.585 116.044 364.179C115.004 365.636 114.872 367.457 115.243 369.163C115.611 370.858 116.443 372.437 117.982 373.33C120.67 374.89 123.723 374.047 126.496 373.293C127.186 373.614 127.341 374.187 127.712 374.838C128.17 375.752 128.499 376.749 128.867 377.704C127.767 378.167 126.651 378.634 125.491 378.93C121.904 379.846 118.257 379.59 115.044 377.61C112.339 375.943 110.257 373.206 109.578 370.082Q109.469 369.555 109.411 369.02Q109.354 368.484 109.349 367.946Q109.345 367.408 109.392 366.872Q109.44 366.336 109.54 365.807Q109.64 365.278 109.79 364.761Q109.941 364.244 110.142 363.745Q110.343 363.245 110.591 362.768Q110.839 362.29 111.133 361.839C113.134 358.726 116.256 357.076 119.765 356.293Z"/>
		<path fill="#FEFEFE" d="M341.761 356.293C345.14 356.049 347.957 356.508 350.943 358.171L348.771 362.608C346.681 361.615 344.766 361.115 342.426 361.561C340.685 361.892 338.959 362.798 337.963 364.303C336.968 365.806 336.878 367.572 337.27 369.289C337.647 370.94 338.482 372.461 339.983 373.33C342.675 374.888 345.721 374.049 348.496 373.293C349.187 373.616 349.347 374.199 349.718 374.852C350.176 375.761 350.505 376.754 350.873 377.703C349.922 378.102 348.948 378.51 347.958 378.803C344.447 379.841 340.703 379.683 337.466 377.858C334.683 376.289 332.498 373.634 331.691 370.522Q331.553 369.973 331.471 369.412Q331.39 368.851 331.367 368.285Q331.343 367.719 331.378 367.154Q331.413 366.589 331.506 366.03Q331.598 365.471 331.748 364.925Q331.897 364.378 332.102 363.85Q332.307 363.322 332.565 362.818Q332.823 362.313 333.131 361.838C335.127 358.725 338.255 357.077 341.761 356.293Z"/>
		<path fill="#FEFEFE" d="M234.607 356.535L250.535 356.522L250.533 361.172C248.772 361.198 247.007 361.175 245.246 361.173L245.246 374.813L245.239 379.006L240.001 379.041C239.929 373.099 239.989 367.15 239.986 361.207L234.618 361.192L234.607 356.535Z"/>
		<path fill="#FEFEFE" d="M132.529 356.528L137.799 356.522L137.784 374.465L145.508 374.477L145.516 379.019L132.526 379.015L132.529 356.528Z"/>
		<path fill="#FEFEFE" d="M385.307 347.923C385.392 347.926 385.478 347.913 385.561 347.93C386.38 348.101 387.766 350.127 388.333 350.794Q385.478 352.501 382.586 354.146C382.257 354.334 381.985 354.389 381.619 354.475C380.907 354.152 380.473 353.139 380.079 352.476C381.877 351.031 383.579 349.452 385.307 347.923Z"/>
		<path fill="#FEFEFE" d="M157.864 347.947C158.926 348.193 160.08 349.925 160.834 350.777L154.872 354.316L154.457 354.61C153.659 354.287 153.022 353.217 152.495 352.551L157.864 347.947Z"/>
	</g>
	<g>
		<path fill="#FEFEFE" d="M0 0L500 0L500 500L0 500L0 0ZM22.0822 156.89L144.433 156.901C148.61 156.904 152.806 156.97 156.98 156.798C161.501 156.611 166.004 156.086 170.524 155.882Q177.834 155.525 185.14 155.944Q192.446 156.363 199.667 157.553C213.478 159.909 224.599 164.654 236.236 172.414C224.345 187.244 217.554 202.501 214.25 221.25C213.664 224.574 213.425 227.936 212.926 231.27L208.392 231.265C207.911 221.492 206.084 212.218 198.522 205.326C194.143 201.335 187.424 198.21 181.4 198.531C179.572 198.628 177.755 198.901 175.924 198.972C166.293 199.342 160.407 199.606 153.571 207.267C144.354 217.598 144.152 232.177 144.132 245.228C144.125 250.4 144.092 255.602 144.414 260.765C145.063 271.186 148.235 282.236 156.378 289.308C163.07 295.121 173.567 296.289 182.067 295.65C189.891 295.061 197.846 291.95 203.032 285.878C206.216 282.15 208.218 277.456 209.253 272.696C209.725 270.527 209.476 265.08 210.765 263.522C211.511 263.477 212.078 263.408 212.775 263.744C213.573 265.903 213.506 269.038 213.81 271.359C214.145 273.913 214.635 276.453 215.102 278.985Q215.572 281.536 216.171 284.061Q216.77 286.585 217.496 289.076Q218.223 291.567 219.074 294.017Q219.926 296.468 220.9 298.873Q221.875 301.277 222.97 303.629Q224.066 305.981 225.279 308.274Q226.492 310.568 227.82 312.796Q229.148 315.025 230.587 317.184C231.98 319.253 233.402 321.497 235.101 323.323C229.974 326.377 224.709 329.377 219.111 331.495C196.4 340.085 167.337 340.252 143.935 334.29C125.083 329.487 108.562 318.114 98.606 301.244C84.8253 277.894 83.1017 240.375 89.8179 214.612C91.2171 209.245 93.1171 204.162 95.2065 199.033L9.16139 199.04Q8.53715 202.01 7.98613 204.995Q7.43511 207.98 6.95763 210.977Q6.48016 213.975 6.07652 216.983Q5.67289 219.991 5.34334 223.009Q5.01378 226.026 4.75851 229.051Q4.50324 232.075 4.3224 235.105Q4.14156 238.135 4.03527 241.168Q3.92898 244.202 3.8973 247.237Q3.86561 250.272 3.90856 253.307Q3.95151 256.342 4.06905 259.375Q4.1866 262.407 4.37868 265.437Q4.57076 268.466 4.83725 271.489Q5.10374 274.513 5.44449 277.529Q5.78524 280.545 6.20004 283.552Q6.61483 286.558 7.10342 289.554Q7.59202 292.55 8.15411 295.533Q8.71621 298.515 9.35146 301.483Q9.98672 304.451 10.6948 307.403Q11.4028 310.354 12.1832 313.288Q12.9636 316.221 13.8158 319.134Q14.6681 322.047 15.5917 324.938Q16.5153 327.83 17.5098 330.697Q18.5042 333.565 19.5688 336.407Q20.6335 339.25 21.7677 342.065Q22.9019 344.881 24.1049 347.667Q25.308 350.454 26.5792 353.21Q27.8504 355.966 29.189 358.69Q30.5276 361.415 31.9328 364.105Q33.3379 366.795 34.8088 369.45Q36.2797 372.105 37.8154 374.724Q39.3511 377.342 40.9507 379.921Q42.5504 382.501 44.2129 385.04Q45.8722 387.565 47.5928 390.049Q49.3135 392.533 51.0945 394.974Q52.8755 397.415 54.7157 399.811Q56.556 402.208 58.4544 404.558Q60.3528 406.909 62.3083 409.213Q64.2637 411.516 66.275 413.771Q68.2863 416.026 70.3522 418.231Q72.4182 420.436 74.5375 422.589Q76.6569 424.743 78.8283 426.844Q80.9998 428.945 83.2221 430.993Q85.4444 433.04 87.7162 435.032Q89.988 437.024 92.3079 438.96Q94.6278 440.896 96.9945 442.775Q99.3611 444.653 101.773 446.473Q104.185 448.293 106.641 450.053Q109.097 451.814 111.595 453.513Q114.093 455.213 116.632 456.851Q119.171 458.489 121.75 460.064Q124.328 461.639 126.945 463.151Q129.561 464.662 132.214 466.109Q134.866 467.556 137.553 468.938Q140.24 470.32 142.961 471.635Q145.681 472.95 148.433 474.199Q151.184 475.447 153.966 476.627Q156.747 477.808 159.557 478.92Q162.366 480.032 165.202 481.075Q168.038 482.117 170.899 483.09Q173.759 484.064 176.643 484.966Q179.526 485.869 182.431 486.701Q185.336 487.532 188.26 488.293Q191.185 489.053 194.127 489.741Q197.069 490.43 200.027 491.046Q202.727 491.605 205.439 492.104Q208.151 492.602 210.874 493.04Q213.596 493.477 216.328 493.854Q219.059 494.231 221.799 494.546Q224.538 494.861 227.284 495.115Q230.03 495.369 232.78 495.561Q235.531 495.754 238.286 495.884Q241.04 496.015 243.797 496.084Q246.553 496.153 249.311 496.16Q252.068 496.167 254.825 496.113Q257.582 496.058 260.337 495.942Q263.092 495.826 265.844 495.648Q268.595 495.47 271.342 495.23Q274.089 494.991 276.83 494.69Q279.571 494.389 282.305 494.027Q285.038 493.664 287.763 493.241Q290.488 492.817 293.203 492.333Q295.917 491.849 298.62 491.304Q301.323 490.759 304.013 490.153Q306.704 489.548 309.38 488.882Q312.056 488.217 314.716 487.492Q317.376 486.766 320.02 485.982Q322.663 485.197 325.288 484.354Q327.914 483.51 330.519 482.608Q333.125 481.705 335.71 480.745Q338.295 479.785 340.857 478.767Q343.42 477.749 345.959 476.674Q348.498 475.599 351.013 474.467Q353.527 473.335 356.016 472.147Q358.504 470.96 360.966 469.716Q363.427 468.473 365.86 467.175Q368.293 465.877 370.696 464.525Q374.43 462.411 378.089 460.169Q381.748 457.926 385.328 455.56Q388.907 453.193 392.403 450.704Q395.899 448.215 399.306 445.607Q402.714 442.999 406.03 440.275Q409.346 437.551 412.566 434.714Q415.786 431.878 418.906 428.932Q422.026 425.986 425.043 422.934Q428.06 419.882 430.97 416.728Q433.88 413.574 436.679 410.321Q439.478 407.069 442.163 403.721Q444.849 400.374 447.417 396.936Q449.986 393.499 452.434 389.974Q454.882 386.45 457.207 382.843Q459.533 379.237 461.732 375.552Q463.932 371.867 466.003 368.109Q472.026 356.945 476.965 345.262C478.36 341.982 479.445 338.519 480.939 335.29L412.092 335.451C403.735 335.47 395.378 335.125 387.016 335.306C385.268 329.436 383.132 323.661 381.528 317.755C377.178 321.058 372.91 324.273 368.096 326.893C347.236 338.246 322.009 339.991 298.853 336.856C279.031 334.173 259.877 325.724 247.512 309.485C230.861 287.616 228.031 254.22 231.679 227.841C234.578 206.875 243.827 187.189 261.029 174.223C285.034 156.13 319.082 153.169 347.976 157.379C369.62 160.532 391.6 168.86 405.035 187.022C413.18 198.035 415.71 209.034 416.294 222.506L362.118 222.505C361.509 215.506 359.651 210.792 354.136 206.167C345.399 198.839 333.304 197.502 322.34 198.524C312.436 199.448 303.327 203.106 296.911 210.902C288.523 221.094 288.322 234.085 288.341 246.625C288.348 251.657 288.303 256.735 288.811 261.746C289.828 271.772 293.45 281.107 301.414 287.624C310.116 294.745 323.255 296.644 334.166 295.537C342.866 294.655 352.34 291.339 358.013 284.35C360.964 280.714 361.65 277.302 362.205 272.774L322.23 272.758C322.169 260.771 321.975 248.727 322.241 236.745L416.294 236.751C416.522 255.736 416.368 274.747 416.32 293.734C441.599 293.734 466.927 294.077 492.2 293.719C503.292 230.786 489.916 163.596 453.088 111.001Q448.954 105.015 444.49 99.2702Q440.026 93.5257 435.246 88.0411Q430.467 82.5565 425.386 77.3492Q420.306 72.1419 414.941 67.2283Q411.762 64.3618 408.485 61.6076Q405.208 58.8533 401.837 56.2146Q398.467 53.5759 395.007 51.056Q391.546 48.536 388 46.1379Q384.455 43.7397 380.828 41.4662Q377.201 39.1927 373.497 37.0467Q369.793 34.9007 366.017 32.8846Q362.241 30.8686 358.397 28.9851Q354.553 27.1015 350.646 25.3527Q346.739 23.6039 342.773 21.9919Q338.807 20.38 334.788 18.9068Q330.769 17.4336 326.701 16.101Q322.633 14.7685 318.522 13.5781Q314.41 12.3877 310.259 11.3409Q306.108 10.2941 301.924 9.39226Q297.739 8.49039 293.526 7.7345Q282.833 5.78505 272.005 4.8457Q261.177 3.90636 250.308 3.98538C246.618 3.98302 242.851 3.87102 239.17 4.11085Q236.14 4.24063 233.115 4.44526Q230.089 4.64989 227.07 4.92925Q224.051 5.20862 221.039 5.56254Q218.027 5.91646 215.025 6.34472Q212.023 6.77298 209.033 7.27532Q206.042 7.77767 203.065 8.35378Q200.088 8.9299 197.126 9.57944Q194.164 10.229 191.219 10.9515Q188.274 11.6741 185.348 12.4692Q182.421 13.2644 179.516 14.1316Q176.61 14.9989 173.727 15.9377Q170.843 16.8765 167.984 17.8863Q165.125 18.8961 162.291 19.9763Q159.458 21.0564 156.652 22.2063Q153.846 23.3562 151.069 24.5751Q148.293 25.794 145.547 27.0812Q142.801 28.3684 140.089 29.723Q137.376 31.0777 134.697 32.499Q132.018 33.9203 129.376 35.4074Q126.733 36.8945 124.128 38.4464Q121.523 39.9984 118.957 41.6143Q116.391 43.2302 113.865 44.909Q111.34 46.5879 108.857 48.3286Q106.374 50.0693 103.935 51.8709Q101.496 53.6725 99.102 55.5339Q96.7081 57.3952 94.361 59.3152Q92.0138 61.2351 89.7149 63.2125Q87.4159 65.1899 85.1665 67.2235Q82.9172 69.2571 80.7187 71.3457Q78.5203 73.4343 76.3742 75.5766Q74.2281 77.7189 72.1356 79.9136Q70.0431 82.1083 68.0055 84.3541C48.2172 105.948 33.6923 130.134 22.0822 156.89Z"/>
	</g>
</svg>
